<?xml version="1.0" standalone="no"?>
<!DOCTYPE svg PUBLIC "-//W3C//DTD SVG 20010904//EN"
 "http://www.w3.org/TR/2001/REC-SVG-20010904/DTD/svg10.dtd">
<svg version="1.0" xmlns="http://www.w3.org/2000/svg"
 width="256.000000pt" height="256.000000pt" viewBox="0 0 256.000000 256.000000"
 preserveAspectRatio="xMidYMid meet">
<metadata>
Created by potrace 1.11, written by Peter Selinger 2001-2013
</metadata>
<g transform="translate(0.000000,256.000000) scale(0.100000,-0.100000)"
fill="#000000" stroke="none">
<path d="M1525 2548 c-2 -7 -13 -74 -25 -148 -12 -74 -24 -148 -26 -165 -3
-16 -7 -41 -9 -55 -1 -14 -7 -47 -11 -75 -4 -27 -7 -54 -5 -60 2 -7 -1 -7 -7
0 -5 6 -28 80 -52 165 -43 152 -55 179 -74 160 -8 -8 12 -158 40 -305 11 -53
16 -82 19 -105 3 -14 10 -59 17 -100 13 -74 13 -120 0 -120 -4 0 -72 63 -151
140 -103 101 -150 140 -167 140 -37 0 -30 -35 18 -94 24 -28 45 -53 48 -56 3
-3 39 -45 80 -95 41 -49 78 -91 83 -93 16 -8 6 -32 -13 -32 -11 0 -146 32
-300 70 -154 39 -287 70 -295 70 -10 0 -15 -7 -13 -17 3 -16 30 -28 306 -129
24 -9 42 -17 40 -19 -2 -2 -37 -6 -78 -10 -41 -4 -83 -9 -93 -11 -10 -1 -49
-6 -87 -9 -38 -3 -78 -8 -88 -10 -10 -2 -54 -6 -98 -10 -78 -6 -119 -24 -99
-44 9 -8 301 -57 453 -77 29 -4 50 -10 45 -14 -4 -5 -75 -27 -158 -50 -146
-41 -174 -55 -155 -74 8 -8 169 13 305 40 104 21 200 36 249 41 l60 6 -626
-626 c-344 -344 -633 -636 -642 -648 -22 -33 -20 -63 8 -96 26 -31 65 -40 98
-22 11 6 301 292 645 636 344 344 623 617 619 607 -18 -61 -136 -544 -136
-558 0 -11 6 -16 17 -14 13 2 33 45 71 148 29 80 59 159 67 175 l14 30 1 -40
c1 -22 3 -47 5 -56 4 -21 14 -111 20 -184 3 -33 7 -71 10 -85 2 -14 7 -54 10
-90 8 -83 13 -100 30 -100 18 0 36 79 61 265 14 110 39 244 43 239 3 -3 26
-76 51 -162 32 -111 50 -157 60 -157 16 0 20 52 8 110 -7 34 -79 447 -80 455
-2 33 4 71 11 68 5 -1 72 -65 149 -140 77 -75 146 -138 154 -139 64 -8 49 29
-64 164 -57 67 -115 136 -130 152 -52 57 -32 67 76 39 33 -9 68 -18 76 -19 8
-2 104 -27 213 -54 220 -56 240 -59 235 -34 -2 12 -52 35 -171 79 -92 34 -171
64 -174 68 -4 3 10 7 30 7 43 2 53 3 127 12 30 4 82 9 115 13 33 3 71 7 85 9
14 2 54 6 90 10 83 8 100 13 100 30 0 14 -16 21 -65 29 -16 2 -73 11 -125 20
-52 8 -111 17 -130 20 -146 22 -189 30 -183 37 5 4 76 26 158 49 146 41 174
55 155 74 -9 9 -55 3 -345 -49 -214 -38 -224 -39 -263 -37 -13 1 -22 6 -20 11
2 5 55 63 118 128 158 163 173 182 159 199 -19 23 -38 16 -107 -42 -37 -30
-76 -63 -87 -72 -11 -9 -54 -45 -95 -80 -68 -57 -75 -61 -78 -41 -2 12 29 152
68 311 54 216 70 292 61 301 -20 20 -18 23 -139 -303 l-16 -45 -8 55 c-3 30
-9 84 -13 120 -6 66 -13 130 -20 185 -2 17 -7 62 -10 100 -7 68 -18 95 -37 95
-5 0 -10 -6 -13 -12z"/>
<path d="M2181 2454 c-1 -79 -2 -80 -92 -104 -54 -15 -36 -29 32 -25 26 2 54
-2 62 -9 7 -6 21 -37 32 -69 22 -68 33 -59 29 22 -3 58 -2 59 29 74 18 8 47
18 65 22 53 11 36 25 -31 25 -63 0 -86 10 -88 40 0 8 -9 33 -19 55 l-19 40 0
-71z"/>
<path d="M692 2357 c-6 -16 -12 -31 -12 -34 0 -4 -7 -14 -15 -23 -11 -13 -27
-16 -60 -12 -50 4 -62 -12 -17 -23 56 -13 70 -30 67 -79 -4 -58 9 -59 27 -3
l15 42 59 5 c62 6 62 6 -13 36 -30 12 -32 16 -35 66 -3 51 -4 52 -16 25z"/>
<path d="M70 1862 c0 -4 13 -23 28 -42 44 -54 45 -64 6 -120 -20 -29 -34 -54
-31 -56 2 -2 25 12 51 32 54 41 73 40 125 -6 59 -53 62 -35 7 39 -14 19 -26
40 -26 47 0 7 16 34 36 59 19 26 33 49 30 52 -3 3 -27 -11 -54 -31 -27 -20
-54 -36 -59 -36 -6 0 -30 16 -54 35 -44 35 -59 42 -59 27z"/>
<path d="M2299 858 c10 -27 -2 -66 -24 -74 -8 -4 -15 -10 -15 -15 0 -5 10 -5
23 0 28 10 47 4 70 -23 17 -21 18 -21 14 14 -3 27 2 41 21 62 l25 28 -32 -10
c-28 -8 -36 -6 -57 15 -31 31 -36 31 -25 3z"/>
<path d="M1780 532 c0 -7 12 -36 27 -65 46 -87 47 -80 -14 -142 -30 -31 -53
-58 -51 -61 3 -2 37 12 76 33 l71 38 60 -60 c34 -33 61 -54 61 -48 0 7 -16 42
-36 78 l-36 65 56 58 c31 32 56 62 56 66 0 4 -29 -8 -64 -28 -35 -20 -71 -36
-80 -36 -8 0 -40 26 -71 58 -30 31 -55 51 -55 44z"/>
</g>
</svg>
